<svg xmlns="http://www.w3.org/2000/svg" version="1.1" xmlns:xlink="http://www.w3.org/1999/xlink" xmlns:svgjs="http://svgjs.dev/svgjs" width="100%" height="100%" viewBox="0 0 1000 600"><rect width="1000" height="600" x="0" y="0" fill="#ff9800"/><g><rect width="333.3333333333333" height="333.3333333333333" rx="13.333333333333334" ry="13.333333333333334" y="223.51791695724307" fill="#ffffff" transform="matrix(0.6209769034824824,0,0,0.6209769034824826,0,57.70436562211468)" x="201.29563903808594"/><path d="M378.27391410061284 315.1845910656085L378.27391410061284 457.8191499169488L357.65068493600984 465.18458890430696L357.65068493600984 322.5783586644566L378.27391410061284 315.1845910656085Z " fill="#000000" transform="matrix(0.6209769034824824,0,0,0.6209769034824826,0,57.70436562211468)"/><path d="M635.6493743291833 315.18459081944275L635.6493743291833 437.5120899233844L617.9622999800929 443.8289021909166L617.9622999800929 321.5256985187732L635.6493743291833 315.18459081944275ZM725.9311988912978 428.61996188524284L728.4093329347143 431.1952776558521Q727.3646293673917 433.4061619494884 725.7611308687103 435.3740919251427Q724.133336938231 437.34202190079696 722.1168160989803 438.8726341040836Q720.1245906915278 440.40324630737024 717.8165246706988 441.3021772839037Q715.5084586498697 442.20110826043714 713.0303246064532 442.20110826043714L713.0303246064532 442.20110826043714Q706.2761945665533 442.20110826043714 703.2392655917781 438.4839071953124Q700.2023366170031 434.76670613018763 700.2023366170031 428.3770075672608L700.2023366170031 428.3770075672608L700.2023366170031 393.6102446640353Q700.2023366170031 393.0028588690803 700.1780411852048 392.20110961973967Q700.1294503216084 391.3750649386008 699.8622005718282 390.670497416453Q699.6192462538462 389.94163446250695 699.1819284814786 389.4314303947447Q698.7689061409092 388.8969308951843 697.9914523233667 388.8969308951843L697.9914523233667 388.8969308951843Q695.6105000071431 388.8969308951843 693.1566613955248 391.81238271096845Q690.7271182157046 394.70353909495435 688.467643058472 399.3196711366125Q686.2081679012393 403.9358031782707 684.2888287891815 409.6695250826461Q682.3694896771235 415.3789515552233 680.9117637692316 420.9911963006077Q679.4540378613394 426.5791456141939 678.6522886119988 431.43823197383415Q677.8262439308601 436.3216137652725 677.8262439308601 439.21277014925846L677.8262439308601 439.21277014925846L662.3014630118096 444.67924230385364L662.3014630118096 387.2934323965031Q662.3014630118096 385.5684567388308 661.4268274670744 384.15932169453515Q660.5764873541373 382.7501866502395 658.7786254010705 382.7501866502395L658.7786254010705 382.7501866502395Q656.6649228346271 382.7501866502395 654.8913563133583 384.3293897171226Q653.1420852238879 385.90859278400563 652.1216770883634 387.4635004190905L652.1216770883634 387.4635004190905L649.8136110675343 384.8881846484812Q650.8340192030588 382.7501866502395 652.4132222699418 380.757961242787Q654.0167207686231 378.74144040353633 656.0089461760756 377.2108282002497Q658.0254670153263 375.68021599696306 660.3578284679536 374.7812850204296Q662.714485352379 373.88235404389616 665.2898011229884 373.88235404389616L665.2898011229884 373.88235404389616Q671.9467494356954 373.88235404389616 674.8864966832778 377.5995551090209Q677.8262439308601 381.31675617414567 677.8262439308601 387.6335684416779L677.8262439308601 387.6335684416779L677.8262439308601 415.47613328241613Q678.6036977484025 411.9775911034752 679.9399464973035 407.482936220808Q681.2518998144063 403.0125767699391 683.1226480628678 398.39644472828087Q685.0176917431274 393.7803126866227 687.3500531957548 389.38283953114836Q689.7067100801803 384.985366375674 692.5249801687715 381.5111196285313Q695.3432502573628 378.0611683131867 698.6717244137164 375.97176117854144Q702.0001985700699 373.88235404389616 705.8631722259838 373.88235404389616L705.8631722259838 373.88235404389616Q709.871918472687 373.88235404389616 711.9127347437359 375.63162513336664Q713.977846446583 377.38089622283707 714.8524819913182 380.0776891524374Q715.7514129678516 382.7501866502395 715.8485946950445 386.0057745111984Q715.921480990439 389.23706694035917 715.921480990439 392.2497004833361L715.921480990439 392.2497004833361L715.921480990439 428.7900299078302Q715.921480990439 430.51500556550246 716.7961165351742 431.92414060979814Q717.6464566481113 433.3332756540938 719.4443186011781 433.3332756540938L719.4443186011781 433.3332756540938Q721.3879531450343 433.3332756540938 723.1372242345046 431.7540725872107Q724.9107907557734 430.1505740885295 725.9311988912978 428.61996188524284L725.9311988912978 428.61996188524284ZM806.7135096203158 428.61996188524284L809.1916436637323 431.1952776558521Q808.171235528208 433.4061619494884 806.5434415977284 435.3740919251427Q804.9399430990472 437.34202190079696 802.9234222597966 438.8726341040836Q800.9069014205459 440.40324630737024 798.5988353997168 441.3021772839037Q796.315064810686 442.20110826043714 793.8369307672695 442.20110826043714L793.8369307672695 442.20110826043714Q787.0828007273694 442.20110826043714 784.0458717525944 438.4839071953124Q781.0089427778194 434.76670613018763 781.0089427778194 428.3770075672608L781.0089427778194 428.3770075672608L781.0089427778194 393.6102446640353Q781.0089427778194 393.0028588690803 780.9846473460211 392.20110961973967Q780.9360564824246 391.3750649386008 780.6688067326445 390.670497416453Q780.4258524146626 389.94163446250695 779.9885346422948 389.4314303947447Q779.5755123017254 388.8969308951843 778.798058484183 388.8969308951843L778.798058484183 388.8969308951843Q776.3928107361612 388.8969308951843 773.963267556341 391.81238271096845Q771.5337243765209 394.70353909495435 769.2742492192883 399.3196711366125Q767.0147740620555 403.9358031782707 765.0954349499978 409.6695250826461Q763.1760958379398 415.3789515552233 761.7183699300479 420.9911963006077Q760.2606440221557 426.5791456141939 759.458894772815 431.43823197383415Q758.6328500916763 436.3216137652725 758.6328500916763 439.21277014925846L758.6328500916763 439.21277014925846L743.0837737408276 444.67924230385364L743.0837737408276 387.2934323965031Q743.0837737408276 385.5684567388308 742.2334336278907 384.15932169453515Q741.3830935149535 382.7501866502395 739.5852315618868 382.7501866502395L739.5852315618868 382.7501866502395Q737.4472335636451 382.7501866502395 735.6979624741746 384.3293897171226Q733.948691384704 385.90859278400563 732.9282832491797 387.4635004190905L732.9282832491797 387.4635004190905L730.6202172283506 384.8881846484812Q731.640625363875 382.7501866502395 733.2198284307581 380.757961242787Q734.7990314976412 378.74144040353633 736.8155523368919 377.2108282002497Q738.8320731761426 375.68021599696306 741.1644346287699 374.7812850204296Q743.5210915131952 373.88235404389616 746.0721118520064 373.88235404389616L746.0721118520064 373.88235404389616Q752.7533555965117 373.88235404389616 755.693102844094 377.5995551090209Q758.6328500916763 381.31675617414567 758.6328500916763 387.6335684416779L758.6328500916763 387.6335684416779L758.6328500916763 415.47613328241613Q759.4103039092188 411.9775911034752 760.7222572263215 407.482936220808Q762.0585059752225 403.0125767699391 763.929254223684 398.39644472828087Q765.8000024721455 393.7803126866227 768.156659356571 389.38283953114836Q770.5133162409966 384.985366375674 773.3315863295879 381.5111196285313Q776.1498564181791 378.0611683131867 779.4783305745327 375.97176117854144Q782.8068047308861 373.88235404389616 786.6454829550019 373.88235404389616L786.6454829550019 373.88235404389616Q790.6785246335032 373.88235404389616 792.7193409045522 375.63162513336664Q794.7601571756011 377.38089622283707 795.6590881521345 380.0776891524374Q796.5580191286679 382.7501866502395 796.6552008558606 386.0057745111984Q796.7280871512553 389.23706694035917 796.7280871512553 392.2497004833361L796.7280871512553 392.2497004833361L796.7280871512553 428.7900299078302Q796.7280871512553 430.51500556550246 797.5784272641924 431.92414060979814Q798.4287673771294 433.3332756540938 800.2266293301961 433.3332756540938L800.2266293301961 433.3332756540938Q802.1945593058506 433.3332756540938 803.9438303953209 431.7540725872107Q805.6931014847914 430.1505740885295 806.7135096203158 428.61996188524284L806.7135096203158 428.61996188524284ZM845.41613247485 443.148630100567L845.41613247485 443.148630100567Q839.0993202073178 443.148630100567 833.584257189126 440.8891549433343Q828.0691941709345 438.6296797861016 824.0118570606348 434.59663810760026Q819.9545199503355 430.5878918608971 817.6221584977081 425.1700105698983Q815.2655016132826 419.7521292788995 815.2655016132826 413.3381352841745L815.2655016132826 413.3381352841745Q815.2655016132826 406.0738011765124 817.6464539295064 399.7083980453837Q820.0517016775282 393.3429949142551 824.2791068104152 388.2166588048347Q828.506511943302 383.09032269541433 834.2645292794757 379.3488261984914Q840.0468420474474 375.5830342697702 846.7766766555492 373.4450362715285L846.7766766555492 373.4450362715285L849.2548106989657 376.43337438270726Q845.41613247485 379.25164447129856 842.0876583184963 382.8959592410287Q838.7591841621429 386.51597857896064 836.2810501187264 390.74338371184757Q833.8029160753099 394.97078884473456 832.3451901674177 399.6355117499891Q830.8874642595258 404.2759392234455 830.8874642595258 409.1593210148839L830.8874642595258 409.1593210148839Q830.8874642595258 413.24095355698165 832.1022358494358 417.7841993032452Q833.2927120075476 422.30314961771063 835.6736643237714 426.06894154643174Q838.0789120717932 429.8104380433547 841.6989314097252 432.26427665497295Q845.3432461794553 434.69381983479303 850.1051508119026 434.69381983479303L850.1051508119026 434.69381983479303Q854.3811468083861 434.69381983479303 857.5152575103539 433.1632076315064Q860.6250727805236 431.6082999964215 862.6658890515725 428.96009793041765Q864.7310007544197 426.31189586441377 865.7514088899441 422.7647628218764Q866.7718170254684 419.21762977933906 866.7718170254684 415.3060652598287L866.7718170254684 415.3060652598287Q866.7718170254684 410.68993321817055 864.9739550724016 405.85514229032856Q863.1760931193348 401.0446467942848 860.0662778491651 396.93871882038883Q856.9564625789953 392.83279084649286 852.7533528779065 390.1117024850944Q848.574538608616 387.3663186918977 843.7883385443704 386.9532963513283L843.7883385443704 386.9532963513283Q846.7766766555492 383.52764046778196 850.372400561683 380.6121886519978Q853.9681244678166 377.7210322680119 857.6367346693451 375.072830202008L857.6367346693451 375.072830202008Q862.5930027561781 376.70062413248746 866.3830901166973 379.85903026625357Q870.1974729090148 383.01743640001973 872.7970841114225 387.12336437391565Q875.3966953138299 391.2049969160134 876.7572394945291 396.03978784385544Q878.1420791070266 400.8745787716974 878.1420791070266 405.8308468585304L878.1420791070266 405.8308468585304Q878.1420791070266 412.56068146663205 875.785422222601 419.21762977933906Q873.4287653381757 425.8988735238443 869.128473909894 431.2195730876503Q864.8038870498142 436.5645680832545 858.7786199638604 439.8687468078098Q852.7533528779065 443.148630100567 845.41613247485 443.148630100567ZM920.0759943907215 443.48876614574175L920.0759943907215 443.48876614574175Q919.0555862551969 443.48876614574175 917.9865872560761 443.02715294157593Q916.9175882569552 442.54124430561194 916.407384189193 441.52083617008753L916.407384189193 441.52083617008753L894.7115635933997 392.75990455109826Q894.2742458210321 391.9824507335558 893.7154508896733 391.01063346162783Q893.1566559583148 390.0145207579016 892.4034975725706 389.1641806449646Q891.6260437550281 388.31384053202754 890.6785219148983 387.7064547370725Q889.7552955065667 387.12336437391565 888.7105919392441 387.12336437391565L888.7105919392441 387.12336437391565Q887.2771614631502 387.12336437391565 886.2567533276258 388.19236337303647Q885.212049760303 389.23706694035917 884.3617096473661 390.4518385302692L884.3617096473661 390.4518385302692L882.661029421492 388.1437725094401Q883.5113695344289 385.5684567388308 885.090572601312 383.2360952862035Q886.6697756681951 380.87943840177803 888.8077736664368 379.08157644871113Q890.9457716646784 377.2837144956443 893.4967920034896 376.19042006472523Q896.0721077740989 375.072830202008 898.8903778626902 375.072830202008L898.8903778626902 375.072830202008Q901.0283758609319 375.072830202008 902.7290560868059 376.4819652463037Q904.42973631268 377.8911002905993 905.765985061581 379.93191656164817Q907.0779383786839 381.99702826449527 908.07405108241 384.20791255813157Q909.0458683543382 386.4187968517678 909.7261404446879 387.9737044868527L909.7261404446879 387.9737044868527Q913.8320684185837 397.78905893332586 917.8894055288833 407.4343453572116Q921.9467426391827 417.1039272128956 926.2227386356662 426.6520319095885L926.2227386356662 426.6520319095885L936.8884331950765 404.78614329120774Q937.568705285426 403.5956671330959 937.8359550352063 401.554850862047Q938.1032047849865 399.4897391591999 938.1032047849865 398.12919497850066L938.1032047849865 398.12919497850066Q938.1032047849865 393.1000405962731 935.527889014377 389.38283953114836Q932.976868675566 385.6656384660236 928.4336229293024 383.43045874058913L928.4336229293024 383.43045874058913L938.2732728075739 369.9464940925876Q943.0351774400212 372.32744640881134 945.3189480290521 376.38478351911084Q947.5784231862847 380.4421206294104 947.5784231862847 385.7385247614182L947.5784231862847 385.7385247614182Q947.5784231862847 388.38672682742214 946.9224465277334 391.5937238247846Q946.2907653009802 394.8007208221471 945.1002891428682 397.27885486556363L945.1002891428682 397.27885486556363L923.4044685470749 441.6909041926749Q922.1168106617702 443.48876614574175 920.0759943907215 443.48876614574175ZM1024.6921237137744 428.3770075672608L1027.0001897346035 431.02520963326475Q1025.9797815990792 433.236093926901 1024.4491693957925 435.20402390255526Q1022.9185571925057 437.17195387820954 1020.9020363532552 438.7025660814962Q1018.8855155140045 440.23317828478287 1016.5531540613772 441.1321092613163Q1014.1964971769517 442.0310402378497 1011.6211814063424 442.0310402378497L1011.6211814063424 442.0310402378497Q1004.8913467982406 442.0310402378497 1001.9273041188603 438.313839172725Q998.987556871278 434.59663810760026 998.987556871278 428.2069395446734L998.987556871278 428.2069395446734L998.987556871278 426.6520319095885Q997.4569446679914 429.56748372537265 995.5376055559334 432.45864010935856Q993.6182664438754 435.3740919251427 991.1644278322572 437.68215794597177Q988.7348846524371 439.99022396680084 985.7465465412583 441.44794987469294Q982.7582084300798 442.88138035078674 979.0895982285513 442.88138035078674L979.0895982285513 442.88138035078674Q973.5259443467635 442.88138035078674 969.2742437820782 440.7433823525451Q964.9982477855947 438.6296797861016 962.0827959698108 434.9853650163715Q959.1916395858248 431.3653456784395 957.7339136779328 426.48196388700114Q956.2761877700407 421.62287752736097 956.2761877700407 416.15640537276573L956.2761877700407 416.15640537276573Q956.2761877700407 408.7220032425163 958.9000944042464 401.3361919758632Q961.4997056066538 393.95038070921015 966.2373148073032 388.1437725094401Q970.9749240079523 382.3371643096701 977.5832814570629 378.69284953993997Q984.2159343379717 375.072830202008 992.3306085585709 375.072830202008L992.3306085585709 375.072830202008Q995.5861964195299 375.072830202008 998.8174888486906 375.68021599696306Q1002.0730767096495 376.2633063601199 1005.0128239572316 377.5995551090209Q1007.9525712048141 378.91150842612376 1010.3821143846342 381.04950642436546Q1012.8359529962524 383.1875044226071 1014.3665651995391 386.24872882918044L1014.3665651995391 386.24872882918044L1001.6357589372819 391.642314688381Q1000.6153508017574 390.0145207579016 999.2791020528564 388.53249941821133Q997.9671487357534 387.0261826467229 996.3879456688705 385.90859278400563Q994.8087426019874 384.8152983530866 993.0108806489204 384.135026262737Q991.2130186958536 383.43045874058913 989.2450887201994 383.43045874058913L989.2450887201994 383.43045874058913Q984.8233201329267 383.43045874058913 981.3490733857841 386.17584253378584Q977.8991220704395 388.8969308951843 975.4695788906195 392.9299725736857Q973.0157402790012 396.93871882038883 971.7523778254947 401.4576691348542Q970.46471994019 406.00091488111775 970.46471994019 409.6695250826461L970.46471994019 409.6695250826461Q970.46471994019 412.90081751180685 971.0964011669432 416.9581546221064Q971.7523778254947 421.0154917324059 973.3558763241758 424.6112156385397Q974.9836702546554 428.2069395446734 977.6318723206593 430.6850735880899Q980.2800743866633 433.1632076315064 984.2888206333664 433.1632076315064L984.2888206333664 433.1632076315064Q987.4715221989306 433.1632076315064 989.7552927879615 431.7540725872107Q992.0633588087906 430.3449375429151 993.6911527392701 428.0611669538842Q995.3189466697495 425.80169179665154 996.3879456688705 422.8619445490692Q997.4569446679914 419.9221973014869 998.0157395993499 416.8366774631154Q998.5745345307084 413.7511576247439 998.7688979850941 410.73852408176697Q998.987556871278 407.7015951069919 998.987556871278 405.29634735896997L998.987556871278 405.29634735896997L998.987556871278 399.41685286380533L1014.5366332221265 393.95038070921015L1014.5366332221265 428.61996188524284Q1014.5366332221265 430.3449375429151 1015.3869733350634 431.7540725872107Q1016.2373134480006 433.1632076315064 1018.0351754010674 433.1632076315064L1018.0351754010674 433.1632076315064Q1020.173173399309 433.1632076315064 1021.9224444887795 431.55970913282516Q1023.6717155782501 429.98050606594205 1024.6921237137744 428.3770075672608L1024.6921237137744 428.3770075672608ZM1065.2654948167701 428.61996188524284L1067.5735608375992 431.1952776558521Q1065.605630861945 435.3740919251427 1063.0546105231338 437.584976218779Q1060.4792947525245 439.82015594421347 1058.0011607091078 440.8405640797379L1058.0011607091078 440.8405640797379Q1055.1828906205167 442.0310402378497 1052.1945525093379 442.20110826043714L1052.1945525093379 442.20110826043714Q1048.3558742852222 442.20110826043714 1045.9263311054021 441.0106321023253Q1043.4967879255819 439.82015594421347 1042.0876528812864 437.85222596855914Q1040.6785178369907 435.8842959929049 1040.1197229056322 433.4061619494884Q1039.5609279742735 430.9280279060719 1039.5609279742735 428.3770075672608L1039.5609279742735 428.3770075672608L1039.5609279742735 383.60052676317656L1030.4987319135446 383.60052676317656L1034.191637546871 375.072830202008L1039.5609279742735 375.072830202008L1039.5609279742735 344.8250176132479L1055.1828906205167 339.35854545865266L1055.1828906205167 375.072830202008L1071.412239061715 375.072830202008L1067.913696882774 383.60052676317656L1055.1828906205167 383.60052676317656L1055.1828906205167 428.7900299078302Q1055.1828906205167 430.8551416106773 1056.1304124606465 432.04561776878916Q1057.0779343007764 433.236093926901 1058.5356602086683 433.2846847904974Q1059.9690906847623 433.3332756540938 1061.766952637829 432.21568579137653Q1063.564814590896 431.09809592865935 1065.2654948167701 428.61996188524284L1065.2654948167701 428.61996188524284ZM1136.4268145537005 421.79294554994834L1138.9778348925115 424.51403391134687Q1135.9894967813327 428.3770075672608 1132.4423637387956 431.70548172361435Q1128.895230696258 435.0339558799679 1124.765007290564 437.5120899233844Q1120.6104884530716 439.99022396680084 1116.0186518432117 441.44794987469294Q1111.4025198015536 442.88138035078674 1106.4462517147206 442.88138035078674L1106.4462517147206 442.88138035078674Q1100.1294394471884 442.88138035078674 1094.8330353151805 440.6219051935541Q1089.5366311831729 438.3624300363214 1085.697952959057 434.40227465321465Q1081.834979303143 430.4178238383097 1079.6969813049013 424.9999425473109Q1077.583278738458 419.5820612563121 1077.583278738458 413.3381352841745L1077.583278738458 413.3381352841745Q1077.583278738458 408.21179917475405 1079.0167092145518 403.25553108792104Q1080.4744351224438 398.2992630010881 1083.1226371884477 393.95038070921015Q1085.7708392544516 389.60149841733215 1089.3908585923834 385.8842973522074Q1093.0351733621137 382.1670962870827 1097.3840556539915 379.51889422107877Q1101.7329379458695 376.8706921550749 1106.616319737308 375.36437538358643Q1111.4754060969483 373.88235404389616 1116.6017422063685 373.88235404389616L1116.6017422063685 373.88235404389616Q1120.1974661125023 373.88235404389616 1123.4044631098648 374.7326941568332Q1126.587164675429 375.5830342697702 1129.0652987188455 377.42948708643354Q1131.543432762262 379.25164447129856 1133.0011586701542 382.1185054234863Q1134.458884578046 384.985366375674 1134.458884578046 388.8969308951843L1134.458884578046 388.8969308951843Q1134.458884578046 392.15251875614325 1132.5395454659883 395.748242662277Q1130.6202063539304 399.3196711366125 1127.4860956519624 402.91539504274624Q1124.3762803817929 406.51111894888 1120.4404204304844 409.96107026422453Q1116.528855910974 413.4110215795691 1112.4715188006744 416.3750642589496Q1108.4141816903748 419.3148115065319 1104.6483897616538 421.52569580016814Q1100.8825978329326 423.76087552560267 1098.0643277443412 424.9513516837145L1098.0643277443412 424.9513516837145Q1101.2227338781074 428.88721163502305 1105.4258435791962 431.3653456784395Q1109.6046578484868 433.843479721856 1114.2936761855394 433.843479721856L1114.2936761855394 433.843479721856Q1117.2820142967182 433.843479721856 1120.3675341350897 432.67729899554234Q1123.428758541663 431.5354137010269 1126.2956194938506 429.7375517479601Q1129.1624804460384 427.9396897948932 1131.762091648446 425.80169179665154Q1134.3617028508534 423.66369379840984 1136.4268145537005 421.79294554994834L1136.4268145537005 421.79294554994834ZM1118.3996041594355 392.07963246074866L1118.3996041594355 392.07963246074866Q1118.3996041594355 390.1117024850944 1117.7679229326823 388.31384053202754Q1117.1119462741308 386.51597857896064 1115.921470116019 385.2040252618578Q1114.730993957907 383.8677765129567 1113.0546091638312 383.0660272636161Q1111.4025198015536 382.2399825824773 1109.264521803312 382.2399825824773L1109.264521803312 382.2399825824773Q1105.4258435791962 382.2399825824773 1102.1702557182373 384.9367755120776Q1098.9146678572783 387.6335684416779 1096.582306404651 391.54513296118824Q1094.2256495202255 395.4809929124968 1092.9136962031228 399.87846606797115Q1091.5774474542216 404.2759392234455 1091.5774474542216 407.60441337979904L1091.5774474542216 407.60441337979904Q1091.5774474542216 410.8600012407579 1092.597855589746 414.2856571243043Q1093.6182637252705 417.6870175760524 1095.4161256783373 420.84542370981853L1095.4161256783373 420.84542370981853Q1098.8417815618836 418.9746754613571 1102.8505278085868 415.64620130500356Q1106.85927405529 412.31772714865 1110.3335208024328 408.33327633374506Q1113.7834721177774 404.37312095063834 1116.0915381386062 400.09712495415494Q1118.3996041594355 395.8211289576716 1118.3996041594355 392.07963246074866ZM1203.5550926121296 326.4819666056062L1203.5550926121296 326.4819666056062L1192.8893980527193 333.38186923629524Q1191.4316721448272 329.4703047167849 1188.4919248972449 326.6520346281936Q1185.5278822178645 323.83376453960227 1181.0089319033991 323.83376453960227L1181.0089319033991 323.83376453960227Q1177.3403217018708 323.83376453960227 1175.1051419764365 325.48585390188Q1172.8942576828001 327.1622386959558 1171.7280769564863 329.7618498983633Q1170.586191661971 332.36146110077084 1170.1974647531997 335.47127637094053Q1169.8087378444286 338.60538707290846 1169.8087378444286 341.49654345689436L1169.8087378444286 341.49654345689436L1169.8087378444286 375.072830202008L1192.1848305305716 375.072830202008L1188.5162203290433 383.60052676317656L1169.8087378444286 383.60052676317656L1169.8087378444286 458.52763842882814L1154.016707175598 465.1845867415352L1154.016707175598 383.60052676317656L1145.4647151826312 383.60052676317656L1149.1576208159577 375.072830202008L1154.016707175598 375.072830202008L1154.016707175598 356.87555178515555Q1154.016707175598 349.8784674272737 1155.5473193788846 342.8327922057954Q1157.1022270139695 335.7871169843171 1160.673655488305 330.1505768071345Q1164.2693793944388 324.5140366299519 1170.0759875942088 321.01549445101097Q1175.8825957939787 317.4926568402718 1184.3374060597528 317.4926568402718L1184.3374060597528 317.4926568402718Q1186.912721830362 317.4926568402718 1189.5852193281642 318.1000426352269Q1192.2820122577643 318.7074284301819 1194.8330325965755 319.84931372469737Q1197.4083483671848 321.01549445101097 1199.6678235244174 322.6675838132886Q1201.9272986816502 324.3439686073645 1203.5550926121296 326.4819666056062ZM1223.4530512548563 443.148630100567L1223.4530512548563 443.148630100567Q1217.1362389873238 443.148630100567 1211.6211759691323 440.8891549433343Q1206.1304083827388 438.6296797861016 1202.0730712724394 434.59663810760026Q1198.0157341621398 430.5878918608971 1195.6590772777142 425.1700105698983Q1193.3024203932887 419.7521292788995 1193.3024203932887 413.3381352841745L1193.3024203932887 413.3381352841745Q1193.3024203932887 406.0738011765124 1195.7076681413107 399.7083980453837Q1198.0886204575343 393.3429949142551 1202.3160255904213 388.2166588048347Q1206.5434307233083 383.09032269541433 1212.3014480594818 379.3488261984914Q1218.0837608274537 375.5830342697702 1224.8135954355553 373.4450362715285L1224.8135954355553 373.4450362715285L1227.291729478972 376.43337438270726Q1223.4530512548563 379.25164447129856 1220.1245770985026 382.8959592410287Q1216.7961029421492 386.51597857896064 1214.3179688987325 390.74338371184757Q1211.8398348553162 394.97078884473456 1210.382108947424 399.6355117499891Q1208.9486784713301 404.2759392234455 1208.9486784713301 409.1593210148839L1208.9486784713301 409.1593210148839Q1208.9486784713301 413.24095355698165 1210.139154629442 417.7841993032452Q1211.329630787554 422.30314961771063 1213.7105831037775 426.06894154643174Q1216.1158308517995 429.8104380433547 1219.7358501897315 432.26427665497295Q1223.3801649594616 434.69381983479303 1228.1663650237072 434.69381983479303L1228.1663650237072 434.69381983479303Q1232.4180655883922 434.69381983479303 1235.5521762903602 433.1632076315064Q1238.66199156053 431.6082999964215 1240.7028078315789 428.96009793041765Q1242.7679195344258 426.31189586441377 1243.7883276699504 422.7647628218764Q1244.8087358054747 419.21762977933906 1244.8087358054747 415.3060652598287L1244.8087358054747 415.3060652598287Q1244.8087358054747 410.68993321817055 1243.010873852408 405.85514229032856Q1241.2130118993412 401.0446467942848 1238.1031966291714 396.93871882038883Q1234.9933813590017 392.83279084649286 1230.814567089711 390.1117024850944Q1226.6114573886223 387.3663186918977 1221.8252573243767 386.9532963513283L1221.8252573243767 386.9532963513283Q1224.8135954355553 383.52764046778196 1228.409319341689 380.6121886519978Q1232.005043247823 377.7210322680119 1235.6736534493514 375.072830202008L1235.6736534493514 375.072830202008Q1240.6299215361842 376.70062413248746 1244.4200088967034 379.85903026625357Q1248.234391689021 383.01743640001973 1250.8340028914288 387.12336437391565Q1253.433614093836 391.2049969160134 1254.7941582745354 396.03978784385544Q1256.178997887033 400.8745787716974 1256.178997887033 405.8308468585304L1256.178997887033 405.8308468585304Q1256.178997887033 412.56068146663205 1253.8223410026073 419.21762977933906Q1251.465684118182 425.8988735238443 1247.1653926899003 431.2195730876503Q1242.8408058298205 436.5645680832545 1236.8155387438667 439.8687468078098Q1230.814567089711 443.148630100567 1223.4530512548563 443.148630100567ZM1297.772777125553 428.61996188524284L1300.0808431463818 431.1952776558521Q1299.0604350108574 433.4061619494884 1297.4569365121763 435.3740919251427Q1295.8777334452932 437.34202190079696 1293.934098901437 438.8726341040836Q1291.9661689257825 440.40324630737024 1289.6095120413572 441.3021772839037Q1287.252855156932 442.20110826043714 1284.7747211135154 442.20110826043714L1284.7747211135154 442.20110826043714Q1278.117772800808 442.20110826043714 1275.080843826033 438.4839071953124Q1272.0682102830563 434.76670613018763 1272.0682102830563 428.3770075672608L1272.0682102830563 428.3770075672608L1272.0682102830563 324.17390058477713L1287.763059224694 318.7074284301819L1287.763059224694 428.7900299078302Q1287.763059224694 430.51500556550246 1288.5405130422364 431.92414060979814Q1289.3179668597788 433.3332756540938 1291.2858968354333 433.3332756540938L1291.2858968354333 433.3332756540938Q1293.2295313792893 433.3332756540938 1295.0030979005578 431.7540725872107Q1296.7523689900283 430.1505740885295 1297.772777125553 428.61996188524284L1297.772777125553 428.61996188524284ZM1309.9933793200478 335.86000327971175L1327.9962942825148 329.7132590347669L1323.4773439680494 360.8842980318587L1315.0954199976702 363.53250009786257L1309.9933793200478 335.86000327971175ZM1337.4958081156112 428.61996188524284L1339.779578704642 431.1952776558521Q1337.835944160786 435.3740919251427 1335.2120375265804 437.584976218779Q1332.612426324173 439.82015594421347 1330.2314740079491 440.8405640797379L1330.2314740079491 440.8405640797379Q1327.413203919358 442.0310402378497 1324.4977521035737 442.20110826043714L1324.4977521035737 442.20110826043714Q1320.7562556066507 442.20110826043714 1318.2781215632344 441.0106321023253Q1315.7999875198177 439.82015594421347 1314.3422616119258 437.85222596855914Q1312.8845357040336 435.8842959929049 1312.3257407726753 433.4061619494884Q1311.7669458413166 430.9280279060719 1311.7669458413166 428.3770075672608L1311.7669458413166 428.3770075672608L1311.7669458413166 380.4421206294104L1327.4860902147525 375.072830202008L1327.4860902147525 428.7900299078302Q1327.4860902147525 430.8551416106773 1328.4336120548824 432.04561776878916Q1329.3811338950122 433.236093926901 1330.8631552347026 433.2846847904974Q1332.369472006191 433.3332756540938 1334.1187430956613 432.21568579137653Q1335.8680141851319 431.09809592865935 1337.4958081156112 428.61996188524284L1337.4958081156112 428.61996188524284ZM1376.3442035609344 443.148630100567L1376.3442035609344 443.148630100567Q1370.0273912934024 443.148630100567 1364.5123282752106 440.8891549433343Q1359.0215606888173 438.6296797861016 1354.9642235785177 434.59663810760026Q1350.9068864682183 430.5878918608971 1348.5502295837925 425.1700105698983Q1346.1935726993672 419.7521292788995 1346.1935726993672 413.3381352841745L1346.1935726993672 413.3381352841745Q1346.1935726993672 406.0738011765124 1348.598820447389 399.7083980453837Q1350.9797727636128 393.3429949142551 1355.2071778964998 388.2166588048347Q1359.4345830293867 383.09032269541433 1365.1926003655603 379.3488261984914Q1370.9749131335323 375.5830342697702 1377.7047477416338 373.4450362715285L1377.7047477416338 373.4450362715285L1380.1828817850503 376.43337438270726Q1376.3442035609344 379.25164447129856 1373.015729404581 382.8959592410287Q1369.6872552482275 386.51597857896064 1367.209121204811 390.74338371184757Q1364.7309871613945 394.97078884473456 1363.2732612535024 399.6355117499891Q1361.8398307774087 404.2759392234455 1361.8398307774087 409.1593210148839L1361.8398307774087 409.1593210148839Q1361.8398307774087 413.24095355698165 1363.0303069355202 417.7841993032452Q1364.2207830936322 422.30314961771063 1366.601735409856 426.06894154643174Q1369.0069831578778 429.8104380433547 1372.6270024958098 432.26427665497295Q1376.2713172655401 434.69381983479303 1381.0575173297855 434.69381983479303L1381.0575173297855 434.69381983479303Q1385.3092178944705 434.69381983479303 1388.4433285964385 433.1632076315064Q1391.5531438666083 431.6082999964215 1393.5939601376574 428.96009793041765Q1395.6590718405043 426.31189586441377 1396.6794799760287 422.7647628218764Q1397.699888111553 419.21762977933906 1397.699888111553 415.3060652598287L1397.699888111553 415.3060652598287Q1397.699888111553 410.68993321817055 1395.9020261584863 405.85514229032856Q1394.1041642054195 401.0446467942848 1390.9943489352497 396.93871882038883Q1387.88453366508 392.83279084649286 1383.7057193957894 390.1117024850944Q1379.5026096947006 387.3663186918977 1374.716409630455 386.9532963513283L1374.716409630455 386.9532963513283Q1377.7047477416338 383.52764046778196 1381.3004716477674 380.6121886519978Q1384.8961955539012 377.7210322680119 1388.5648057554297 375.072830202008L1388.5648057554297 375.072830202008Q1393.5210738422627 376.70062413248746 1397.311161202782 379.85903026625357Q1401.1255439950994 383.01743640001973 1403.725155197507 387.12336437391565Q1406.3247663999146 391.2049969160134 1407.6853105806138 396.03978784385544Q1409.0701501931112 400.8745787716974 1409.0701501931112 405.8308468585304L1409.0701501931112 405.8308468585304Q1409.0701501931112 412.56068146663205 1406.7134933086857 419.21762977933906Q1404.3568364242603 425.8988735238443 1400.0565449959786 431.2195730876503Q1395.731958135899 436.5645680832545 1389.706691049945 439.8687468078098Q1383.7057193957894 443.148630100567 1376.3442035609344 443.148630100567Z " fill="#000000" transform="matrix(0.6209769034824824,0,0,0.6209769034824826,0,57.70436562211468)"/></g></svg>